<mxfile host="app.diagrams.net" modified="2021-06-22T12:17:06.501Z" agent="5.0 (Windows NT 10.0; Win64; x64) AppleWebKit/537.36 (KHTML, like Gecko) Chrome/91.0.4472.106 Safari/537.36" etag="ewnvhhTy6h6V8Tm5nwa8" version="14.8.0" type="github">
  <diagram id="kgpKYQtTHZ0yAKxKKP6v" name="Page-1">
    <mxGraphModel dx="1185" dy="635" grid="1" gridSize="10" guides="1" tooltips="1" connect="1" arrows="1" fold="1" page="1" pageScale="1" pageWidth="850" pageHeight="1100" math="0" shadow="0">
      <root>
        <mxCell id="0" />
        <mxCell id="1" parent="0" />
        <mxCell id="3nuBFxr9cyL0pnOWT2aG-1" value=":Orbitfour Client" style="shape=umlLifeline;perimeter=lifelinePerimeter;container=1;collapsible=0;recursiveResize=0;rounded=0;shadow=0;strokeWidth=1;labelBackgroundColor=#FFFF66;" parent="1" vertex="1">
          <mxGeometry x="80" y="80" width="100" height="560" as="geometry" />
        </mxCell>
        <mxCell id="3nuBFxr9cyL0pnOWT2aG-2" value="" style="points=[];perimeter=orthogonalPerimeter;rounded=0;shadow=0;strokeWidth=1;" parent="3nuBFxr9cyL0pnOWT2aG-1" vertex="1">
          <mxGeometry x="45" y="70" width="10" height="330" as="geometry" />
        </mxCell>
        <mxCell id="3nuBFxr9cyL0pnOWT2aG-3" value="Add Account Settings" style="verticalAlign=bottom;startArrow=oval;endArrow=block;startSize=8;shadow=0;strokeWidth=1;" parent="3nuBFxr9cyL0pnOWT2aG-1" target="3nuBFxr9cyL0pnOWT2aG-2" edge="1">
          <mxGeometry relative="1" as="geometry">
            <mxPoint x="-15" y="70" as="sourcePoint" />
          </mxGeometry>
        </mxCell>
        <mxCell id="3nuBFxr9cyL0pnOWT2aG-5" value="Portal" style="shape=umlLifeline;perimeter=lifelinePerimeter;container=1;collapsible=0;recursiveResize=0;rounded=0;shadow=0;strokeWidth=1;labelBackgroundColor=#FFFF66;" parent="1" vertex="1">
          <mxGeometry x="270" y="80" width="100" height="680" as="geometry" />
        </mxCell>
        <mxCell id="3nuBFxr9cyL0pnOWT2aG-6" value="" style="points=[];perimeter=orthogonalPerimeter;rounded=0;shadow=0;strokeWidth=1;" parent="3nuBFxr9cyL0pnOWT2aG-5" vertex="1">
          <mxGeometry x="45" y="80" width="10" height="600" as="geometry" />
        </mxCell>
        <mxCell id="Wux9znUvD7yYL1foFDx8-2" value="Stripe" style="shape=umlLifeline;perimeter=lifelinePerimeter;container=1;collapsible=0;recursiveResize=0;rounded=0;shadow=0;strokeWidth=1;labelBackgroundColor=#FFFF66;" vertex="1" parent="1">
          <mxGeometry x="425" y="80" width="100" height="750" as="geometry" />
        </mxCell>
        <mxCell id="Wux9znUvD7yYL1foFDx8-3" value="" style="points=[];perimeter=orthogonalPerimeter;rounded=0;shadow=0;strokeWidth=1;" vertex="1" parent="Wux9znUvD7yYL1foFDx8-2">
          <mxGeometry x="45" y="80" width="10" height="290" as="geometry" />
        </mxCell>
        <mxCell id="Wux9znUvD7yYL1foFDx8-4" value="EPP" style="shape=umlLifeline;perimeter=lifelinePerimeter;container=1;collapsible=0;recursiveResize=0;rounded=0;shadow=0;strokeWidth=1;labelBackgroundColor=#FFFF66;" vertex="1" parent="1">
          <mxGeometry x="580" y="80" width="100" height="710" as="geometry" />
        </mxCell>
        <mxCell id="Wux9znUvD7yYL1foFDx8-5" value="" style="points=[];perimeter=orthogonalPerimeter;rounded=0;shadow=0;strokeWidth=1;" vertex="1" parent="Wux9znUvD7yYL1foFDx8-4">
          <mxGeometry x="45" y="80" width="10" height="90" as="geometry" />
        </mxCell>
        <mxCell id="Wux9znUvD7yYL1foFDx8-6" value="Notification Service" style="shape=umlLifeline;perimeter=lifelinePerimeter;container=1;collapsible=0;recursiveResize=0;rounded=0;shadow=0;strokeWidth=1;labelBackgroundColor=#FFFF66;" vertex="1" parent="1">
          <mxGeometry x="720" y="80" width="110" height="700" as="geometry" />
        </mxCell>
        <mxCell id="Wux9znUvD7yYL1foFDx8-7" value="" style="points=[];perimeter=orthogonalPerimeter;rounded=0;shadow=0;strokeWidth=1;" vertex="1" parent="Wux9znUvD7yYL1foFDx8-6">
          <mxGeometry x="45" y="360" width="10" height="50" as="geometry" />
        </mxCell>
        <mxCell id="Wux9znUvD7yYL1foFDx8-10" value="/addressbook/contact" style="verticalAlign=bottom;startArrow=oval;endArrow=block;startSize=8;shadow=0;strokeWidth=1;" edge="1" parent="1">
          <mxGeometry relative="1" as="geometry">
            <mxPoint x="140" y="170" as="sourcePoint" />
            <mxPoint x="320" y="170" as="targetPoint" />
          </mxGeometry>
        </mxCell>
        <mxCell id="Wux9znUvD7yYL1foFDx8-11" value="/contact/" style="verticalAlign=bottom;startArrow=oval;endArrow=block;startSize=8;shadow=0;strokeWidth=1;labelBackgroundColor=#FFFF66;" edge="1" parent="1" target="Wux9znUvD7yYL1foFDx8-4">
          <mxGeometry relative="1" as="geometry">
            <mxPoint x="330" y="190" as="sourcePoint" />
            <mxPoint x="510" y="190" as="targetPoint" />
          </mxGeometry>
        </mxCell>
        <mxCell id="Wux9znUvD7yYL1foFDx8-13" value="return contact" style="verticalAlign=bottom;endArrow=open;dashed=1;endSize=8;exitX=0;exitY=0.95;shadow=0;strokeWidth=1;" edge="1" parent="1">
          <mxGeometry relative="1" as="geometry">
            <mxPoint x="330" y="220" as="targetPoint" />
            <mxPoint x="630" y="220.0000000000001" as="sourcePoint" />
          </mxGeometry>
        </mxCell>
        <mxCell id="Wux9znUvD7yYL1foFDx8-14" value="/checkout/pay" style="verticalAlign=bottom;startArrow=oval;endArrow=block;startSize=8;shadow=0;strokeWidth=1;labelBackgroundColor=#FFFF66;" edge="1" parent="1">
          <mxGeometry relative="1" as="geometry">
            <mxPoint x="130" y="249" as="sourcePoint" />
            <mxPoint x="317" y="249" as="targetPoint" />
            <Array as="points">
              <mxPoint x="317" y="249" />
            </Array>
          </mxGeometry>
        </mxCell>
        <mxCell id="Wux9znUvD7yYL1foFDx8-15" value="/create/customer" style="verticalAlign=bottom;startArrow=oval;endArrow=block;startSize=8;shadow=0;strokeWidth=1;entryX=0.167;entryY=0.625;entryDx=0;entryDy=0;entryPerimeter=0;labelBackgroundColor=#FFFF66;" edge="1" parent="1">
          <mxGeometry relative="1" as="geometry">
            <mxPoint x="322" y="260" as="sourcePoint" />
            <mxPoint x="473.6700000000001" y="260" as="targetPoint" />
          </mxGeometry>
        </mxCell>
        <mxCell id="Wux9znUvD7yYL1foFDx8-16" value="return stripe customer" style="verticalAlign=bottom;endArrow=open;dashed=1;endSize=8;exitX=0;exitY=0.95;shadow=0;strokeWidth=1;" edge="1" parent="1">
          <mxGeometry relative="1" as="geometry">
            <mxPoint x="320" y="286" as="targetPoint" />
            <mxPoint x="472" y="286.0000000000001" as="sourcePoint" />
          </mxGeometry>
        </mxCell>
        <mxCell id="Wux9znUvD7yYL1foFDx8-17" value="/paymentIntent/create" style="verticalAlign=bottom;startArrow=oval;endArrow=block;startSize=8;shadow=0;strokeWidth=1;entryX=0.167;entryY=0.625;entryDx=0;entryDy=0;entryPerimeter=0;labelBackgroundColor=#FFFF66;" edge="1" parent="1">
          <mxGeometry relative="1" as="geometry">
            <mxPoint x="328" y="308" as="sourcePoint" />
            <mxPoint x="479.6700000000001" y="308" as="targetPoint" />
          </mxGeometry>
        </mxCell>
        <mxCell id="Wux9znUvD7yYL1foFDx8-18" value="return client secret" style="verticalAlign=bottom;endArrow=open;dashed=1;endSize=8;exitX=0;exitY=0.95;shadow=0;strokeWidth=1;" edge="1" parent="1">
          <mxGeometry relative="1" as="geometry">
            <mxPoint x="326" y="335.0000000000001" as="targetPoint" />
            <mxPoint x="478" y="335.0000000000001" as="sourcePoint" />
          </mxGeometry>
        </mxCell>
        <mxCell id="Wux9znUvD7yYL1foFDx8-19" value="/paymentIntent/create" style="verticalAlign=bottom;startArrow=oval;endArrow=block;startSize=8;shadow=0;strokeWidth=1;entryX=0.167;entryY=0.625;entryDx=0;entryDy=0;entryPerimeter=0;labelBackgroundColor=#FFFF66;" edge="1" parent="1">
          <mxGeometry relative="1" as="geometry">
            <mxPoint x="327" y="361" as="sourcePoint" />
            <mxPoint x="478.6700000000001" y="361" as="targetPoint" />
          </mxGeometry>
        </mxCell>
        <mxCell id="Wux9znUvD7yYL1foFDx8-20" value="status : success" style="verticalAlign=bottom;endArrow=open;dashed=1;endSize=8;exitX=0;exitY=0.95;shadow=0;strokeWidth=1;" edge="1" parent="1">
          <mxGeometry relative="1" as="geometry">
            <mxPoint x="328" y="392" as="targetPoint" />
            <mxPoint x="480" y="392" as="sourcePoint" />
          </mxGeometry>
        </mxCell>
        <mxCell id="Wux9znUvD7yYL1foFDx8-23" value="Check the status&amp;nbsp; of payment&lt;br&gt;intent. Redirect to stripe&lt;br&gt;in case of require_action" style="text;html=1;resizable=0;autosize=1;align=center;verticalAlign=middle;points=[];fillColor=none;strokeColor=none;rounded=0;labelBackgroundColor=#FFFF66;" vertex="1" parent="1">
          <mxGeometry x="150" y="360" width="170" height="50" as="geometry" />
        </mxCell>
        <mxCell id="Wux9znUvD7yYL1foFDx8-24" value="status : failed" style="verticalAlign=bottom;endArrow=open;dashed=1;endSize=8;exitX=0;exitY=0.95;shadow=0;strokeWidth=1;" edge="1" parent="1">
          <mxGeometry relative="1" as="geometry">
            <mxPoint x="330" y="423.58" as="targetPoint" />
            <mxPoint x="482" y="423.58" as="sourcePoint" />
          </mxGeometry>
        </mxCell>
        <mxCell id="Wux9znUvD7yYL1foFDx8-25" value="order/failled" style="verticalAlign=bottom;startArrow=oval;endArrow=block;startSize=8;shadow=0;strokeWidth=1;labelBackgroundColor=#FFFF66;" edge="1" parent="1">
          <mxGeometry relative="1" as="geometry">
            <mxPoint x="330" y="470.0000000000001" as="sourcePoint" />
            <mxPoint x="774.5000000000002" y="470" as="targetPoint" />
          </mxGeometry>
        </mxCell>
        <mxCell id="Wux9znUvD7yYL1foFDx8-26" value="status : failed" style="verticalAlign=bottom;endArrow=open;dashed=1;endSize=8;exitX=0;exitY=0.95;shadow=0;strokeWidth=1;" edge="1" parent="1">
          <mxGeometry relative="1" as="geometry">
            <mxPoint x="140" y="429" as="targetPoint" />
            <mxPoint x="309" y="428.5799999999999" as="sourcePoint" />
          </mxGeometry>
        </mxCell>
        <mxCell id="Wux9znUvD7yYL1foFDx8-27" value="/create/order" style="verticalAlign=bottom;startArrow=oval;endArrow=block;startSize=8;shadow=0;strokeWidth=1;labelBackgroundColor=#FFFF66;" edge="1" parent="1">
          <mxGeometry relative="1" as="geometry">
            <mxPoint x="140" y="460.0000000000001" as="sourcePoint" />
            <mxPoint x="310" y="460" as="targetPoint" />
          </mxGeometry>
        </mxCell>
        <mxCell id="Wux9znUvD7yYL1foFDx8-28" value="/domain/create" style="verticalAlign=bottom;startArrow=oval;endArrow=block;startSize=8;shadow=0;strokeWidth=1;labelBackgroundColor=#FFFF66;" edge="1" parent="1">
          <mxGeometry relative="1" as="geometry">
            <mxPoint x="330" y="520.0000000000001" as="sourcePoint" />
            <mxPoint x="620" y="520" as="targetPoint" />
          </mxGeometry>
        </mxCell>
        <mxCell id="Wux9znUvD7yYL1foFDx8-29" value="" style="points=[];perimeter=orthogonalPerimeter;rounded=0;shadow=0;strokeWidth=1;" vertex="1" parent="1">
          <mxGeometry x="625" y="480" width="10" height="240" as="geometry" />
        </mxCell>
        <mxCell id="Wux9znUvD7yYL1foFDx8-30" value="status : success" style="verticalAlign=bottom;endArrow=open;dashed=1;endSize=8;exitX=0;exitY=0.95;shadow=0;strokeWidth=1;" edge="1" parent="1">
          <mxGeometry relative="1" as="geometry">
            <mxPoint x="330" y="550" as="targetPoint" />
            <mxPoint x="625" y="549.9999999999999" as="sourcePoint" />
          </mxGeometry>
        </mxCell>
        <mxCell id="Wux9znUvD7yYL1foFDx8-31" value="status : success" style="verticalAlign=bottom;endArrow=open;dashed=1;endSize=8;shadow=0;strokeWidth=1;" edge="1" parent="1">
          <mxGeometry relative="1" as="geometry">
            <mxPoint x="140" y="580" as="targetPoint" />
            <mxPoint x="310" y="580" as="sourcePoint" />
          </mxGeometry>
        </mxCell>
        <mxCell id="Wux9znUvD7yYL1foFDx8-32" value="" style="points=[];perimeter=orthogonalPerimeter;rounded=0;shadow=0;strokeWidth=1;" vertex="1" parent="1">
          <mxGeometry x="125" y="540" width="10" height="80" as="geometry" />
        </mxCell>
        <mxCell id="Wux9znUvD7yYL1foFDx8-33" value="status : failed" style="verticalAlign=bottom;endArrow=open;dashed=1;endSize=8;exitX=0;exitY=0.95;shadow=0;strokeWidth=1;" edge="1" parent="1">
          <mxGeometry relative="1" as="geometry">
            <mxPoint x="330" y="600" as="targetPoint" />
            <mxPoint x="625" y="600" as="sourcePoint" />
          </mxGeometry>
        </mxCell>
        <mxCell id="Wux9znUvD7yYL1foFDx8-34" value="log the error in service_log table" style="text;html=1;resizable=0;autosize=1;align=center;verticalAlign=middle;points=[];fillColor=none;strokeColor=none;rounded=0;labelBackgroundColor=#FFFF66;" vertex="1" parent="1">
          <mxGeometry x="380" y="600" width="190" height="20" as="geometry" />
        </mxCell>
        <mxCell id="Wux9znUvD7yYL1foFDx8-35" value="order/failed" style="verticalAlign=bottom;startArrow=oval;endArrow=block;startSize=8;shadow=0;strokeWidth=1;labelBackgroundColor=#FFFF66;entryX=-0.333;entryY=0.55;entryDx=0;entryDy=0;entryPerimeter=0;" edge="1" parent="1" target="Wux9znUvD7yYL1foFDx8-36">
          <mxGeometry relative="1" as="geometry">
            <mxPoint x="330" y="660" as="sourcePoint" />
            <mxPoint x="760" y="660" as="targetPoint" />
          </mxGeometry>
        </mxCell>
        <mxCell id="Wux9znUvD7yYL1foFDx8-37" value="" style="edgeStyle=orthogonalEdgeStyle;rounded=0;orthogonalLoop=1;jettySize=auto;html=1;labelBackgroundColor=#FFFF66;strokeColor=#FFFFCC;" edge="1" parent="1" source="Wux9znUvD7yYL1foFDx8-36" target="Wux9znUvD7yYL1foFDx8-4">
          <mxGeometry relative="1" as="geometry" />
        </mxCell>
        <mxCell id="Wux9znUvD7yYL1foFDx8-36" value="" style="points=[];perimeter=orthogonalPerimeter;rounded=0;shadow=0;strokeWidth=1;" vertex="1" parent="1">
          <mxGeometry x="770" y="630" width="10" height="50" as="geometry" />
        </mxCell>
        <mxCell id="Wux9znUvD7yYL1foFDx8-38" value="" style="points=[];perimeter=orthogonalPerimeter;rounded=0;shadow=0;strokeWidth=1;" vertex="1" parent="1">
          <mxGeometry x="470" y="710" width="10" height="50" as="geometry" />
        </mxCell>
        <mxCell id="Wux9znUvD7yYL1foFDx8-39" value="initiate/refund" style="verticalAlign=bottom;startArrow=oval;endArrow=block;startSize=8;shadow=0;strokeWidth=1;entryX=0.167;entryY=0.625;entryDx=0;entryDy=0;entryPerimeter=0;labelBackgroundColor=#FFFF66;" edge="1" parent="1">
          <mxGeometry relative="1" as="geometry">
            <mxPoint x="328.33" y="734.5800000000002" as="sourcePoint" />
            <mxPoint x="480.00000000000006" y="734.5800000000002" as="targetPoint" />
          </mxGeometry>
        </mxCell>
        <mxCell id="Wux9znUvD7yYL1foFDx8-40" value="retry/create/domain" style="verticalAlign=bottom;startArrow=oval;endArrow=block;startSize=8;shadow=0;strokeWidth=1;labelBackgroundColor=#FFFF66;" edge="1" parent="1">
          <mxGeometry relative="1" as="geometry">
            <mxPoint x="328.3299999999999" y="690.0000000000001" as="sourcePoint" />
            <mxPoint x="620" y="690" as="targetPoint" />
          </mxGeometry>
        </mxCell>
        <mxCell id="Wux9znUvD7yYL1foFDx8-41" value="status : failed" style="verticalAlign=bottom;endArrow=open;dashed=1;endSize=8;exitX=0;exitY=0.95;shadow=0;strokeWidth=1;" edge="1" parent="1">
          <mxGeometry relative="1" as="geometry">
            <mxPoint x="327.5" y="710" as="targetPoint" />
            <mxPoint x="622.5" y="710" as="sourcePoint" />
          </mxGeometry>
        </mxCell>
      </root>
    </mxGraphModel>
  </diagram>
</mxfile>
